# xmcd
#
# Track frame offsets:
#	150
#	16401
#	29492
#	42567
#	59174
#	80594
#	98481
#	118002
#	134473
#	150296
#	169060
#	185620
#	199929
#
# Disc length: 2861 seconds
#
# Revision: 0
# Processed by: cddbd v1.5.1PL2 Copyright (c) Steve Scherf et al.
# Submitted via: dBpowerAMP V4.0
#
DISCID=b20b2b0d
DTITLE=Acda en de Munnik - Liedjes van Lenny
DYEAR=2004
DGENRE=Blues
TTITLE0=Duivel Is Dood
TTITLE1=Totdat Ik Jou
TTITLE2=Wat Ik Zie Moet Ik Hebben
TTITLE3=(Noem Me) Oud Verdriet
TTITLE4=Mijn Client (Vogelvrij)
TTITLE5=Minnaars En Verliezers
TTITLE6=Ik Hou Van Bijna
TTITLE7=Je Huis Is Af
TTITLE8=Voor Jou
TTITLE9=Kleine Man
TTITLE10=Van De Regels En Het Spel
TTITLE11=De Liefde Voortaan
TTITLE12=Geen Liedje
EXTD=Cheers, The Fish NL
EXTT0=
EXTT1=
EXTT2=
EXTT3=
EXTT4=
EXTT5=
EXTT6=
EXTT7=
EXTT8=
EXTT9=
EXTT10=
EXTT11=
EXTT12=
PLAYORDER=
